<svg width="162" height="40" viewBox="0 0 162 40" fill="none" xmlns="http://www.w3.org/2000/svg">
<rect width="162" height="40" fill="#E5E5E5"/>
<rect width="1440" height="3834" transform="translate(-112 -36)" fill="white"/>
<g clip-path="url(#clip0_0_1)">
<path d="M14.1902 28.7982C11.533 28.6086 9.35031 27.4711 9.35031 24.5324C9.35031 21.7833 9.16051 18.9394 9.54011 16.2851C10.0146 12.3985 12.5769 10.1234 16.4678 9.74418C18.176 9.55459 19.7893 9.64938 21.4026 10.0286C22.3516 10.313 23.2057 10.5973 23.9649 11.2609C24.2496 11.4505 24.4394 11.6401 24.7241 11.3557C27.1916 9.55459 29.9437 9.45979 32.8856 9.83898C37.6306 10.313 39.5286 13.8204 39.6235 17.8966C39.6235 21.8781 39.6235 28.7982 39.6235 28.7982C39.6235 28.7982 34.6887 28.3242 34.6887 24.1532C34.6887 22.1625 34.7836 20.1718 34.6887 18.2758C34.6887 17.1383 34.4989 16.0955 34.1193 15.0528C33.455 13.6308 32.2213 13.062 30.7978 13.062C29.3743 13.062 28.2355 13.7256 27.6661 15.1476C27.2865 15.8111 27.1916 17.5175 27.1916 18.2758C27.1916 21.8781 27.1916 22.826 27.1916 28.7034C24.3445 28.6086 22.1618 27.4711 22.1618 24.3428C22.1618 22.1625 22.1618 19.9822 22.1618 17.8018C22.1618 17.3279 22.0669 16.9487 21.972 16.4747C21.4975 14.1996 20.1689 13.062 17.9862 13.1568C14.8545 13.6308 14.38 16.0955 14.2851 18.3706C14.0004 21.3093 14.2851 26.9023 14.1902 28.7982Z" fill="#1C2833"/>
<path d="M58.5086 18.75C58.5086 21.973 57.7494 24.7221 55.4718 26.9024C52.435 29.5567 47.5002 29.9359 44.3685 27.4712C41.4266 25.2909 41.1419 20.0771 44.9379 18.0864C47.5951 16.7592 50.4421 16.7592 53.2891 17.4228C53.7636 17.5176 54.0483 17.6124 53.8585 16.9488C53.1942 13.7258 51.2962 12.4934 48.0696 13.4414C47.1206 13.7258 46.2665 14.1049 45.2226 14.1049C44.7481 14.1049 44.3685 14.1049 43.894 13.9154C42.8501 13.4414 42.6603 12.7778 43.5144 12.0194C46.9308 8.98596 51.9605 8.79636 55.3769 11.4507C57.2749 12.9674 58.129 15.0529 58.4137 17.328C58.5086 17.802 58.5086 18.4656 58.5086 18.75ZM50.2523 19.9823C49.3033 20.0771 48.3543 20.1719 47.5951 20.5511C46.5512 21.1199 45.9818 22.0678 46.1716 23.2054C46.3614 24.3429 47.0257 25.1961 48.1645 25.3857C51.7707 26.1441 53.6687 23.9637 53.8585 20.7407C53.8585 20.2667 53.6687 20.2667 53.384 20.2667C52.3401 20.0771 51.2962 20.0771 50.2523 19.9823Z" fill="#FF5300"/>
<path d="M78.6276 15.3372C80.4307 13.9153 82.1389 12.5881 83.8471 11.261C85.0808 10.313 86.3145 9.74426 87.8329 9.45987C88.8768 9.27028 89.9207 9.45987 90.6799 10.313C91.1544 10.787 91.1544 11.0714 90.585 11.5454C88.687 12.9673 86.789 14.5789 84.891 16.0956C84.4165 16.4748 84.4165 16.5696 84.7012 17.1383C86.8839 20.1718 87.6431 21.3094 91.534 27.2815C90.0156 28.4191 87.6431 28.6087 86.3145 27.2815C84.9859 25.9544 84.0369 24.3429 82.993 22.8261C82.3287 21.8782 81.3797 19.9822 80.8103 18.9395C79.2919 20.077 78.7225 20.6458 78.7225 21.499C78.7225 23.4897 78.7225 23.4897 78.7225 28.4191C75.8755 28.2295 73.5979 27.0919 73.6928 23.9637C73.7877 17.5175 73.7877 11.0714 73.8826 4.62527C73.8826 1.68659 74.6418 0.359445 77.4888 0.264648C77.9633 0.264648 78.8174 0.359444 78.8174 0.833425C78.7225 6.3316 78.7225 12.0194 78.6276 15.3372Z" fill="#1C2833"/>
<path d="M108.901 7.46914C108.901 4.24607 110.514 3.29811 113.171 3.10852C113.835 3.10852 113.551 3.10852 113.741 9.08067C113.741 9.55465 114.025 9.55465 114.215 9.55465C115.639 9.55465 117.157 9.55465 118.58 9.55465C119.055 9.55465 119.15 9.74425 119.055 10.1234C118.77 12.3037 117.442 13.4413 115.069 13.5361C113.646 13.6309 113.646 13.6309 113.646 15.0528C113.646 17.2331 113.456 19.4134 113.835 21.5938C114.025 22.4469 114.31 23.3001 114.784 24.0585C115.923 25.4804 117.442 25.5752 119.055 25.2908C119.909 25.1012 120.004 25.1012 120.004 25.9544C120.004 27.2815 118.865 28.5139 117.347 28.8931C114.784 29.4618 111.937 28.2295 110.419 25.7648C109.09 23.7741 108.806 21.6886 108.806 19.4134C108.806 17.6123 108.901 9.74425 108.901 7.46914Z" fill="#1C2833"/>
<path d="M98.8413 21.2146C97.7025 21.2146 96.6586 21.1199 95.7096 20.8355C95.2351 20.7407 95.1402 20.8355 95.2351 21.3094C95.6147 23.5846 97.1331 25.2909 99.126 25.3857C104.346 25.3857 106.149 23.0158 105.959 24.9117C105.674 27.6608 101.404 28.8931 98.6515 28.7035C95.8045 28.6087 93.1473 27.1868 91.2493 23.9637C88.9717 19.6979 90.0156 13.9153 93.7167 11.2611C97.3229 8.60677 102.922 9.08075 105.579 12.209C107.762 14.7685 107.098 18.3708 104.251 19.9823C102.732 20.9303 101.024 21.2146 98.8413 21.2146ZM98.177 18.0864C99.2209 18.0864 100.075 17.9916 101.024 17.6124C102.068 17.1384 102.542 16.2853 102.353 15.0529C102.258 14.1997 101.593 13.4414 100.549 13.157C97.6076 12.4934 95.6147 14.3893 95.0453 17.1384C94.9504 17.5176 95.1402 17.6124 95.5198 17.6124C96.3739 17.8968 97.228 18.0864 98.177 18.0864Z" fill="#1C2833"/>
<path d="M5.17617 9.36514C4.22716 9.36514 3.46796 9.55473 2.89856 9.83912C2.32916 10.2183 1.75976 10.5027 1.47506 11.0715C1.09545 11.5455 0.905654 12.1142 0.715853 12.7778C0.526053 13.3466 0.431152 14.1049 0.431152 14.6737V18.9395V23.2054C0.431152 23.7741 0.526053 24.5325 0.715853 25.1013C0.905654 25.6701 1.19035 26.3336 1.47506 26.8076C1.85466 27.2816 2.32916 27.7556 2.89856 28.04C3.46796 28.4191 4.22716 28.5139 5.17617 28.5139" fill="#1C2833"/>
<path d="M134.239 10.1234C135.568 10.1234 136.896 10.4078 137.94 10.8817C139.079 11.3557 140.028 12.1141 140.787 12.9673C141.546 13.8204 142.116 14.8632 142.59 16.0007C143.065 17.1383 143.16 18.4654 143.16 19.7926C143.16 21.1197 142.875 22.4469 142.495 23.5844C142.021 24.8168 141.357 25.7647 140.597 26.6179C139.838 27.4711 138.889 28.1346 137.75 28.7034C136.612 29.1774 135.568 29.4618 134.239 29.4618C132.91 29.4618 131.582 29.1774 130.538 28.7034C129.399 28.2294 128.45 27.4711 127.691 26.6179C126.932 25.7647 126.362 24.722 125.888 23.5844C125.413 22.3521 125.318 21.1197 125.318 19.7926C125.318 19.4134 125.224 18.9394 125.224 18.2758C125.224 17.6123 125.224 16.7591 125.224 15.9059C125.224 15.0528 125.224 14.01 125.224 13.0621C125.224 12.0193 125.224 11.0713 125.224 10.1234C125.224 9.17542 125.224 8.32225 125.224 7.65868C125.224 6.90031 125.224 6.33153 125.224 5.95235C125.224 5.38357 125.318 4.6252 125.508 4.05643C125.698 3.48765 125.983 2.82408 126.267 2.3501C126.647 1.87612 127.122 1.49693 127.691 1.11775C128.26 0.738564 129.02 0.643768 129.874 0.643768C129.874 3.20326 129.874 11.5453 129.874 11.5453C131.202 10.787 132.531 10.1234 134.239 10.1234ZM138.699 19.8874C138.794 18.3706 138.604 17.1383 138.225 16.2851C137.845 15.432 137.466 14.7684 136.896 14.2944C136.422 13.8204 135.852 13.536 135.378 13.4412C134.903 13.2517 134.429 13.2517 134.049 13.2517C133.575 13.2517 133.195 13.3464 132.721 13.536C132.246 13.7256 131.772 14.01 131.392 14.484C130.918 14.958 130.538 15.6216 130.253 16.4747C129.874 17.3279 129.779 18.5602 129.684 19.8874C129.589 21.4041 129.779 22.6365 130.158 23.4896C130.538 24.3428 130.918 25.0064 131.487 25.5751C131.961 26.0491 132.531 26.3335 133.005 26.4283C133.48 26.6179 133.954 26.6179 134.334 26.6179C134.808 26.6179 135.188 26.5231 135.663 26.3335C136.137 26.1439 136.612 25.8595 136.991 25.3856C137.466 24.9116 137.845 24.248 138.13 23.3948C138.415 22.5417 138.604 21.3093 138.699 19.8874Z" fill="#1C2833"/>
<path d="M155.971 13.4412C156.541 12.114 157.395 11.0713 158.439 10.4077C159.482 9.83893 160.337 9.64933 161.57 10.1233C155.781 25.5751 154.548 28.8929 151.89 36.0026C150.562 39.4153 147.715 39.2257 146.291 38.7517C148.569 33.4432 150.277 29.3669 150.562 28.5138C150.087 28.2294 149.328 27.8502 148.854 27.1866C147.525 25.5751 142.78 12.0192 142.116 10.1233C143.444 9.74413 144.109 9.74413 145.153 10.4077C146.196 10.9765 147.145 11.9244 147.62 13.4412C148.569 15.9059 149.518 18.7498 151.701 25.2907C152.175 23.8687 152.65 22.352 153.029 21.0249C153.504 19.7925 153.883 18.5602 154.358 17.1382C155.117 15.8111 155.592 14.5787 155.971 13.4412Z" fill="#1C2833"/>
<path d="M58.8883 23.9637C58.8883 23.9637 59.0781 25.3856 59.8374 26.9971C60.4068 28.2295 61.166 28.7035 61.166 28.7035C61.166 28.7035 59.8374 28.9879 58.6037 28.8931C56.7056 28.6087 55.6617 28.1347 55.6617 28.1347C55.6617 28.1347 56.8954 27.4711 57.6546 26.2388C58.4139 25.2908 58.6985 24.5324 58.8883 23.9637Z" fill="#FF5300"/>
<path d="M5.17524 8.03798C3.94154 8.13277 3.18233 8.41716 2.32823 8.70155C0.999629 9.17553 0.335327 10.4079 0.335327 10.4079C0.335327 10.4079 0.335327 8.22757 0.335327 7.4692C0.430227 2.7294 5.17524 3.48777 5.17524 6.14206C5.17524 7.18481 5.17524 8.03798 5.17524 8.03798Z" fill="#FF5300"/>
<path d="M122.756 28.7035C122.092 28.7035 121.522 28.1348 121.427 27.3764C121.427 26.9024 121.522 26.5232 121.902 26.144C122.282 25.7648 122.661 25.67 123.136 25.67H123.231C123.99 25.7648 124.559 26.2388 124.559 26.9972C124.559 27.4712 124.464 27.7556 124.085 28.1348C123.8 28.5139 123.325 28.7035 122.756 28.7035Z" fill="#1C2833"/>
<path d="M71.2253 10.0286C69.1375 10.0286 68.9477 10.1234 67.8089 10.2182C66.4803 10.4078 65.3415 10.787 64.3925 11.4506C63.8231 10.6922 62.969 10.1234 61.8302 10.1234C61.3557 10.0286 61.1659 10.2182 61.2608 10.6922C61.3557 12.1141 61.2608 13.6309 61.2608 15.0528C61.2608 15.1476 61.2608 18.8447 61.2608 19.0343C61.2608 19.1291 61.2608 19.1291 61.2608 19.1291C61.2608 19.7926 61.2608 20.4562 61.2608 20.9302C61.2608 22.3521 61.2608 23.3949 61.2608 24.4376C61.3557 27.4711 63.3486 28.6087 66.1956 28.7983C66.2905 23.6793 66.1956 21.3094 66.2905 17.8967C66.3854 15.432 67.6191 14.1049 69.8967 13.8205C72.3641 13.2517 73.408 9.93384 71.2253 10.0286Z" fill="#1C2833"/>
</g>
<defs>
<clipPath id="clip0_0_1">
<rect width="162" height="40" fill="white"/>
</clipPath>
</defs>
</svg>
